# xmcd CD database file
#
# Track frame offsets:
#	150
#	13494
#	25042
#	35699
#	50455
#	67447
#	80897
#	98422
#	110928
#	121695
#	135371
#	146722
#	160387
#	173343
#	189857
#	202114
#
# Disc length: 2894 seconds
#
# Revision: 0
# Processed by: cddbd v1.5.1PL2 Copyright (c) Steve Scherf et al.
# Submitted via: CDex 1.50
#
DISCID=e30b4c10
DTITLE=FESACI - U_KLOKANU
DYEAR=1900
DGENRE=Country
TTITLE0=Do_Australie
TTITLE1=Vandr
TTITLE2=Kytara
TTITLE3=Deset_tisic_mil
TTITLE4=Tupodol
TTITLE5=Nezoufej
TTITLE6=Az_se_vratim_domu
TTITLE7=Indian
TTITLE8=Je_sobota
TTITLE9=Pres_zapadni_plane
TTITLE10=Poklad
TTITLE11=Stary_valnik
TTITLE12=Stastna_zem
TTITLE13=Divoky_osadnik
TTITLE14=Strihac
TTITLE15=Hadej_Matildo
EXTD=
EXTT0=
EXTT1=
EXTT2=
EXTT3=
EXTT4=
EXTT5=
EXTT6=
EXTT7=
EXTT8=
EXTT9=
EXTT10=
EXTT11=
EXTT12=
EXTT13=
EXTT14=
EXTT15=
PLAYORDER=
